<svg width="112" height="112" viewBox="0 0 112 112" fill="none" xmlns="http://www.w3.org/2000/svg">
<g clip-path="url(#clip0_189_4262)" filter="url(#filter0_i_189_4262)">
<path d="M56 112C86.9279 112 112 86.9279 112 56C112 25.0721 86.9279 0 56 0C25.0721 0 0 25.0721 0 56C0 86.9279 25.0721 112 56 112Z" fill="#D9DD92"/>
<path d="M85.8429 42.7461C85.4835 41.5547 84.5551 40.6435 83.3595 40.3088C79.3269 39.1799 72.979 40.755 68.3637 42.2756C64.4071 43.579 60.6437 45.2055 58.6697 46.2361C58.323 45.6073 57.7607 45.1138 57.0832 44.855C57.4409 43.1322 58.6752 39.3439 60.8662 36.9491C61.2287 36.5528 61.2013 35.9378 60.8051 35.5753C60.4089 35.2126 59.7938 35.24 59.4313 35.6363C57.8363 37.3796 56.7131 39.6624 55.9999 41.632C55.2867 39.6623 54.1635 37.3796 52.5685 35.6363C52.206 35.24 51.5909 35.2127 51.1947 35.5753C50.7985 35.9378 50.7711 36.5528 51.1336 36.9491C53.3247 39.3439 54.559 43.1322 54.9167 44.855C54.2391 45.1137 53.6767 45.6073 53.3301 46.2361C51.3561 45.2055 47.5927 43.5791 43.6361 42.2756C39.021 40.7552 32.6729 39.1797 28.6403 40.3088C27.4446 40.6435 26.5163 41.5546 26.1569 42.7461C25.7953 43.9445 26.0672 45.2255 26.8843 46.1727C28.3683 47.8933 31.2345 51.192 33.7568 53.9525C36.0666 56.4808 37.3431 57.7539 38.1086 58.3953C37.1247 60.5677 37.2455 63.8177 38.4775 67.7033C39.5383 71.049 39.4702 75.6437 39.4694 75.6895C39.4614 76.1298 39.7501 76.5203 40.1732 76.6418C40.2623 76.6673 40.3525 76.6798 40.4417 76.6798C40.7765 76.6798 41.0959 76.5062 41.2751 76.2082C42.6132 73.9826 44.0777 72.701 45.5103 72.5018C46.9809 72.2974 48.0248 73.2584 48.0632 73.2941C48.3838 73.6047 48.8747 73.6568 49.2537 73.4209C49.6325 73.185 49.8021 72.7213 49.6648 72.2966C49.5389 71.907 49.3919 70.9815 49.6222 70.6076C49.6496 70.5629 49.7009 70.4798 49.9262 70.4448C52.321 70.0723 52.8237 68.0245 52.8237 66.3722C52.8237 64.8012 53.146 63.13 53.5525 61.7064C53.5661 61.7594 53.5794 61.8127 53.5936 61.8655C54.2278 64.2519 54.9475 65.2702 56.0002 65.2702C57.0528 65.2702 57.7725 64.2519 58.4068 61.8655C58.4208 61.8127 58.4341 61.7594 58.4479 61.7064C58.8544 63.13 59.1767 64.8012 59.1767 66.3722C59.1767 69.3658 60.7523 70.2391 62.074 70.4448C62.2987 70.4798 62.3498 70.5621 62.3774 70.6066C62.5902 70.9495 62.4892 71.81 62.3354 72.2966C62.1981 72.7213 62.3678 73.185 62.7465 73.4209C63.1256 73.6569 63.6164 73.6047 63.937 73.2941C63.9472 73.2843 65.0021 72.3066 66.466 72.4986C67.9066 72.6871 69.3793 73.9699 70.725 76.2081C70.904 76.506 71.2235 76.6796 71.5584 76.6796C71.6476 76.6796 71.738 76.6672 71.8269 76.6417C72.25 76.5202 72.5387 76.1297 72.5307 75.6894C72.5299 75.6435 72.4595 71.0562 73.5226 67.7031C74.7547 63.8176 74.8754 60.5675 73.8915 58.3952C74.657 57.7537 75.9335 56.4805 78.2433 53.9524C80.7656 51.1918 83.6318 47.8932 85.1158 46.1726C85.9326 45.2255 86.2045 43.9445 85.8429 42.7461ZM68.9723 44.1226C72.8115 42.8579 76.1698 42.1138 78.8282 41.9206C78.111 46.2642 71.4264 52.3696 68.2665 54.8759C64.6969 52.9906 61.3674 51.3614 59.0466 50.9691V48.2411C60.4779 47.4218 64.4145 45.6243 68.9723 44.1226ZM54.8977 47.7022C54.8977 47.0945 55.3921 46.6002 55.9998 46.6002C56.6075 46.6002 57.1018 47.0945 57.1018 47.7022V51.8511C57.1018 52.4588 56.6075 52.9532 55.9998 52.9532C55.3921 52.9532 54.8977 52.4588 54.8977 51.8511V47.7022ZM52.9529 48.2412V50.9692C50.6322 51.3617 47.3025 52.9909 43.7329 54.8762C40.573 52.3711 33.8883 46.2679 33.1714 41.9206C35.8299 42.1138 39.1881 42.8579 43.0274 44.1226C47.585 45.6243 51.5217 47.4218 52.9529 48.2412ZM28.3567 44.9025C27.971 44.4553 27.8479 43.8741 28.0186 43.3079C28.1873 42.7487 28.6049 42.3382 29.1645 42.1816C29.7512 42.0173 30.4346 41.9192 31.2039 41.8846C31.5082 44.5743 33.564 47.8752 37.3234 51.7043C39.0707 53.4841 40.7825 54.9652 41.8722 55.8654C40.906 56.3782 39.9735 56.8622 39.5183 57.0418C38.5563 56.3139 35.1744 52.8067 28.3567 44.9025ZM49.627 68.5231C48.8996 68.6362 48.3252 69.0045 47.9658 69.5879C47.7332 69.9654 47.6202 70.3945 47.5778 70.8158C46.9395 70.5923 46.1604 70.4553 45.2812 70.5704C43.8778 70.7541 42.5517 71.5249 41.3194 72.8691C41.1983 71.1752 40.9282 68.999 40.331 67.1155C38.7977 62.2799 39.4777 59.9087 40.0177 58.9265C40.505 58.761 41.234 58.401 42.5414 57.7109C42.5514 59.0514 42.7793 60.9258 43.7355 62.6871C45.4577 65.8596 48.5993 67.2378 50.7848 67.376C50.5636 68.3764 49.997 68.4655 49.627 68.5231ZM50.9103 65.4355C49.4085 65.3359 46.8368 64.3235 45.4449 61.7594C44.3812 59.7999 44.4451 57.5796 44.5325 56.652C47.3434 55.1604 50.9527 53.3149 53.1417 52.9071C53.2069 53.0832 53.2882 53.2515 53.3834 53.4104C53.1027 53.8767 52.9528 54.4094 52.9528 54.9628V57.8294C52.2863 59.123 51.1152 62.2634 50.9103 65.4355ZM57.1018 58.0744C57.1018 59.0984 56.5224 61.8018 55.9998 62.9468C55.4771 61.8018 54.8977 59.0984 54.8977 58.0744V54.9628C54.8977 54.8746 54.9099 54.7881 54.9311 54.704C55.2637 54.8291 55.6238 54.898 55.9998 54.898C56.3758 54.898 56.7358 54.8291 57.0686 54.704C57.0898 54.788 57.1018 54.8745 57.1018 54.9628V58.0744ZM59.0466 57.8294V54.9628C59.0466 54.4073 58.8965 53.876 58.6159 53.4107C58.7111 53.2516 58.7924 53.0833 58.8577 52.9071C61.0468 53.3149 64.6561 55.1602 67.4669 56.6519C67.5545 57.5811 67.6181 59.8005 66.5547 61.7594C65.1627 64.3236 62.5917 65.3363 61.0893 65.4356C60.8845 62.2635 59.7134 59.1231 59.0466 57.8294ZM71.6685 67.1155C71.0713 68.999 70.8012 71.1752 70.68 72.8691C69.4478 71.5249 68.1217 70.7541 66.7182 70.5704C65.839 70.4553 65.0601 70.5923 64.4216 70.8158C64.3792 70.3945 64.2662 69.9654 64.0336 69.5879C63.6743 69.0045 63.0998 68.6362 62.3725 68.5231C62.0026 68.4655 61.436 68.3765 61.2146 67.3763C63.4001 67.2379 66.5417 65.8596 68.2638 62.6874C69.22 60.926 69.448 59.0516 69.4579 57.7112C70.7653 58.4012 71.4943 58.7612 71.9816 58.9268C72.5216 59.9088 73.2017 62.2799 71.6685 67.1155ZM83.643 44.9025C76.8253 52.8067 73.4434 56.3139 72.4814 57.0419C72.0262 56.8623 71.0937 56.3782 70.1275 55.8656C71.2171 54.9654 72.929 53.4843 74.6763 51.7045C78.4356 47.8753 80.4915 44.5745 80.7958 41.8847C81.5653 41.9193 82.2487 42.0175 82.8353 42.1817C83.3948 42.3383 83.8125 42.7488 83.9812 43.308C84.1518 43.8741 84.0287 44.4553 83.643 44.9025Z" fill="#87775E"/>
</g>
<defs>
<filter id="filter0_i_189_4262" x="0" y="0" width="112" height="116" filterUnits="userSpaceOnUse" color-interpolation-filters="sRGB">
<feFlood flood-opacity="0" result="BackgroundImageFix"/>
<feBlend mode="normal" in="SourceGraphic" in2="BackgroundImageFix" result="shape"/>
<feColorMatrix in="SourceAlpha" type="matrix" values="0 0 0 0 0 0 0 0 0 0 0 0 0 0 0 0 0 0 127 0" result="hardAlpha"/>
<feOffset dy="4"/>
<feGaussianBlur stdDeviation="2"/>
<feComposite in2="hardAlpha" operator="arithmetic" k2="-1" k3="1"/>
<feColorMatrix type="matrix" values="0 0 0 0 0 0 0 0 0 0 0 0 0 0 0 0 0 0 0.25 0"/>
<feBlend mode="normal" in2="shape" result="effect1_innerShadow_189_4262"/>
</filter>
<clipPath id="clip0_189_4262">
<rect width="112" height="112" fill="white"/>
</clipPath>
</defs>
</svg>
