<svg width="40" height="40" viewBox="0 0 40 40" fill="none" xmlns="http://www.w3.org/2000/svg">
<g clip-path="url(#clip0_177_916)">
<path d="M20 3.98663C28.8302 3.98663 36.0146 11.1707 36.0146 19.9994C36.0146 28.8305 28.8289 36.0134 20 36.0134C11.1698 36.0134 3.98678 28.828 3.98678 19.9994C3.98678 11.1695 11.1698 3.98663 20 3.98663ZM20 0C8.95493 0 0 8.95337 0 19.9994C0 31.0466 8.95493 40 20 40C31.0451 40 40 31.0466 40 19.9994C40.0012 8.95337 31.0451 0 20 0Z" fill="#939D73"/>
<path d="M31.2534 14.6345C25.4334 12.7644 21.2115 15.9235 20.0032 18.985C18.8244 15.9089 14.5877 12.7107 8.73824 14.5905C7.89484 14.8688 7.91949 15.5524 7.97376 15.8063C8.45711 20.0738 13.113 23.7212 18.9871 22.3003V30.5081C14.2178 30.8499 10.6026 33.5403 10.6026 36.8997C10.6026 37.4564 11.0613 37.9105 11.6235 37.9105H28.442C29.0042 37.9105 29.4629 37.4564 29.4136 36.8997C29.4136 33.5454 25.7984 30.8499 21.029 30.5081V22.3492C26.8933 23.7505 31.5394 20.108 32.0227 15.8454C32.0719 15.5915 32.146 14.8884 31.2534 14.6345ZM10.1685 16.2067C14.3756 15.2692 17.3842 17.2516 18.2967 20.357C14.7554 21.1578 11.224 19.8053 10.1685 16.2067ZM27.2188 35.9379H12.8023C13.5667 33.9651 16.5852 32.4955 20.0081 32.4955C23.431 32.4955 26.4494 33.9603 27.2188 35.9379ZM29.823 16.2507C28.7675 19.8541 25.2361 21.2017 21.6949 20.401C22.6073 17.2956 25.6159 15.3132 29.823 16.2507Z" fill="#939D73"/>
</g>
<defs>
<clipPath id="clip0_177_916">
<rect width="40" height="40" fill="white"/>
</clipPath>
</defs>
</svg>
