<svg xmlns="http://www.w3.org/2000/svg" width="70" height="60" fill="none" viewBox="0 0 70 60">
  <path fill="#939D73" d="M0 13C0 5.82 5.82 0 13 0h57v60H13C5.82 60 0 54.18 0 47V13Z"/>
  <g clip-path="url(#a)">
    <path fill="#FAEDCD" d="M43.853 18.766h-5.247c-.528-1.456-1.909-2.51-3.54-2.51-1.633 0-3.014 1.054-3.541 2.51h-5.248a2.518 2.518 0 0 0-2.51 2.511v17.576a2.518 2.518 0 0 0 2.51 2.511h17.576a2.518 2.518 0 0 0 2.511-2.51V21.276c0-1.38-1.13-2.51-2.51-2.51Zm-8.788-.314a.94.94 0 0 1 .69.314.94.94 0 0 1 .252.628.948.948 0 0 1-.942.942.948.948 0 0 1-.941-.942c0-.239.1-.465.25-.628a.94.94 0 0 1 .691-.314Zm8.788 20.401H26.277V21.277h17.576v17.576Zm-8.788-16.32a3.777 3.777 0 0 0-3.766 3.766 3.777 3.777 0 0 0 3.766 3.766 3.777 3.777 0 0 0 3.767-3.766 3.777 3.777 0 0 0-3.767-3.767Zm0 5.021A1.26 1.26 0 0 1 33.81 26.3c0-.69.565-1.256 1.255-1.256s1.256.565 1.256 1.256a1.26 1.26 0 0 1-1.256 1.255Zm-7.532 8.123v1.92h15.065v-1.92c0-3.139-4.984-4.494-7.533-4.494-2.548 0-7.532 1.343-7.532 4.494Zm2.9-.59c.866-.703 2.988-1.406 4.632-1.406 1.645 0 3.78.703 4.633 1.406h-9.265Z"/>
  </g>
  <defs>
    <clipPath id="a">
      <path fill="#FAEDCD" d="M0 0h30.13v30.13H0z" transform="translate(20 15)"/>
    </clipPath>
  </defs>
</svg>
