<svg width="112" height="112" viewBox="0 0 112 112" fill="none" xmlns="http://www.w3.org/2000/svg">
<g clip-path="url(#clip0_189_4241)" filter="url(#filter0_i_189_4241)">
<path d="M56 112C86.9279 112 112 86.9279 112 56C112 25.0721 86.9279 0 56 0C25.0721 0 0 25.0721 0 56C0 86.9279 25.0721 112 56 112Z" fill="#EABE7C"/>
<g clip-path="url(#clip1_189_4241)">
<path d="M84.1352 70.0041C84.0421 69.4007 83.6559 68.8875 83.1021 68.6315L81.446 67.8649C81.4502 67.8212 81.4522 67.777 81.4522 67.7327C81.4522 67.1479 81.0828 66.6235 80.5343 66.4281C75.4786 64.613 72.4276 63.1283 70.5937 62.0297C70.8625 60.7147 71.7832 59.6371 73.0629 59.1733L73.2016 59.1222C74.6755 58.5891 75.8148 57.4336 76.327 55.9521C76.8393 54.4707 76.6571 52.8582 75.8271 51.5282L75.0622 50.3008L66.2852 36.2272C66.1413 35.9966 65.8388 35.9112 65.5894 36.0509C65.4149 36.1487 65.3197 36.3457 65.3291 36.5454L65.4103 38.2828L54.6157 26.1876C54.4909 26.0476 54.302 25.9724 54.118 26.009C53.8501 26.0624 53.6767 26.3053 53.7002 26.5648C53.7114 26.6874 53.9266 28.8373 55.3985 31.8955C54.1693 30.5888 52.8019 29.0754 51.7661 27.7656C51.617 27.5771 51.358 27.5159 51.1403 27.6176C50.9226 27.7194 50.8035 27.9574 50.8526 28.1926C51.0849 29.3076 51.7603 31.8515 53.4744 34.7405C52.0955 33.443 50.524 31.8185 49.197 30.0648C49.0456 29.8649 48.7726 29.8019 48.5492 29.9158C48.3255 30.0295 48.2156 30.2869 48.288 30.5272C48.7665 32.1137 50.0167 34.7915 52.1001 37.6419C50.7787 36.6038 49.2525 35.3341 47.8259 33.9787C47.6463 33.808 47.371 33.7881 47.1692 33.932C46.9672 34.0753 46.895 34.3417 46.997 34.5674C47.4647 35.6035 48.846 38.3325 51.5619 41.2912C51.704 41.4461 51.8482 41.5977 51.9928 41.7486C50.46 40.8795 48.7236 39.7859 47.423 38.6552C47.2316 38.4891 46.9481 38.4856 46.753 38.6471C46.5577 38.8086 46.5079 39.0877 46.6354 39.3068C47.1526 40.1957 47.9641 41.2285 48.9556 42.2777L46.6553 41.2139C46.4084 41.1 46.1087 41.1943 45.9766 41.4477C45.8841 41.6249 45.9124 41.8416 46.0296 42.0034L47.0504 43.4134L31.3733 39.2052C31.1574 39.1472 30.9287 39.2344 30.8061 39.4211C30.6834 39.6079 30.6943 39.8524 30.8331 40.0275C30.9303 40.15 32.2832 41.8171 35.1494 43.5497C33.4114 43.1314 31.45 42.6173 29.8739 42.092C29.6464 42.0163 29.3958 42.1067 29.2695 42.3111C29.1432 42.5155 29.1741 42.7798 29.3438 42.9497C30.1493 43.7553 32.1082 45.5135 35.1256 46.9909C33.2615 46.6611 31.0555 46.1626 28.985 45.4233C28.7488 45.3388 28.4861 45.436 28.3614 45.6534C28.2367 45.8711 28.2858 46.1468 28.478 46.3079C29.7471 47.3726 32.2568 48.9275 35.5597 50.1701C33.8872 50.0259 31.9172 49.8001 29.9825 49.4484C29.7388 49.4035 29.4978 49.5385 29.4075 49.7692C29.3173 49.9998 29.4028 50.2622 29.6118 50.3952C30.5709 51.0054 33.2217 52.5314 37.1147 53.5179C37.3204 53.5701 37.5259 53.6171 37.7314 53.6645C35.9716 53.7777 33.9162 53.8145 32.2082 53.5818C31.9567 53.5471 31.7182 53.7 31.6433 53.9421C31.5685 54.1842 31.68 54.4449 31.9066 54.5584C33.4735 55.3417 36.1253 56.0768 39.218 56.4011C38.1183 56.6083 36.7107 56.7826 35.0063 56.8147C34.7451 56.8197 34.5285 57.0182 34.501 57.2781C34.4734 57.5379 34.6437 57.7775 34.898 57.8369C36.8266 58.2884 39.0833 58.5768 41.3832 58.6133C40.3038 58.9974 39.1467 59.3522 38.3845 59.4248C38.1258 59.4494 37.9254 59.662 37.916 59.9218C37.9065 60.1815 38.0911 60.408 38.3474 60.4513C39.1995 60.5953 40.1097 60.6672 41.0755 60.6672C42.5644 60.6672 44.1855 60.4956 45.9274 60.1546C45.798 60.531 45.8462 60.944 46.077 61.2891C46.3681 61.724 46.869 61.937 47.3839 61.8444L47.8359 61.7632C47.6737 62.1387 47.6982 62.5711 47.9181 62.9381C48.2022 63.4121 48.7359 63.6497 49.2788 63.5443L49.6575 63.4705C49.5834 63.8011 49.6443 64.1531 49.8438 64.4578C50.1596 64.94 50.7223 65.1516 51.2773 64.9964L51.5121 64.9309C51.4966 64.9792 51.4843 65.0282 51.4747 65.0774L28.1674 74.4791C28.0261 74.5361 27.9171 74.6524 27.8694 74.7971C27.8216 74.9417 27.8399 75.1001 27.9194 75.23C28.0753 75.4847 31.8065 81.4771 37.8309 82.2187C37.852 82.2214 37.8732 82.2226 37.8942 82.2226C38.02 82.2226 38.1424 82.1767 38.2375 82.0924C40.6993 79.9132 44.9736 76.8954 48.9052 74.2508C51.1503 74.7063 53.3381 74.9693 55.4217 75.0355L55.008 81.7255C54.9945 81.9435 55.1191 82.1464 55.3195 82.2331C55.3859 82.2617 55.4557 82.2755 55.5248 82.2755C55.6649 82.2755 55.8026 82.2187 55.9026 82.1121L57.3102 80.6131L59.5819 81.6042C59.5901 81.6078 59.6065 81.6142 59.6065 81.6142L63.1033 82.9307L62.573 85.3549C62.5528 85.4472 62.5513 85.5444 62.58 85.6344C62.6516 85.8594 62.8553 85.9996 63.0754 85.9996H64.9419C65.2124 85.9996 65.454 85.8018 65.4797 85.5324C65.5092 85.2234 65.267 84.9635 64.9641 84.9635H63.7191L64.122 83.1216H65.6849L66.5963 84.4127C66.7523 84.6338 67.0532 84.7172 67.2881 84.583C67.5576 84.4291 67.6304 84.0812 67.4557 83.8337L66.3765 82.3048C66.2794 82.1673 66.1216 82.0856 65.9533 82.0856H64.5431L64.6371 81.8975L66.182 81.0243L67.6156 82.835C67.7179 82.9642 67.8692 83.0316 68.0221 83.0316C68.1384 83.0316 68.2556 82.9926 68.3526 82.9121C68.5724 82.7298 68.59 82.3968 68.4128 82.173L66.7192 80.0337C66.5608 79.8336 66.2801 79.7784 66.0582 79.9042L64.2221 80.9422L60.7635 79.3263L62.9238 79.1044C63.1885 79.077 63.3976 78.8513 63.3888 78.5681C63.3834 78.3942 63.2807 78.239 63.1355 78.1432C61.9278 77.3447 61.0565 76.1444 60.6613 74.77C61.7787 74.6108 62.8506 74.3863 63.8632 74.0998L63.6425 77.6557C63.6298 77.8605 63.7265 78.0639 63.9059 78.1633C63.9856 78.2074 64.0722 78.2287 64.1581 78.2287C64.2983 78.2287 64.4359 78.1718 64.536 78.0651L65.9436 76.5652L68.2155 77.5573C68.2236 77.5609 68.2322 77.5631 68.2405 77.5662L68.2403 77.5668L71.7369 78.8833L71.2066 81.3075C71.1864 81.3998 71.185 81.497 71.2136 81.587C71.2852 81.812 71.4889 81.9522 71.7091 81.9522H73.5754C73.8459 81.9522 74.0876 81.7544 74.1132 81.485C74.1427 81.176 73.9004 80.9161 73.5977 80.9161H72.3527L72.7556 79.0742H74.3186L75.2301 80.3653C75.3861 80.5864 75.687 80.6698 75.9219 80.5355C76.1914 80.3815 76.2642 80.0337 76.0895 79.7862L75.0103 78.2573C74.9132 78.1197 74.7554 78.038 74.5871 78.038H73.1769L73.2709 77.8501L74.8158 76.9769L76.2494 78.7876C76.3517 78.9168 76.503 78.9842 76.6559 78.9842C76.7722 78.9842 76.8894 78.9452 76.9864 78.8647C77.2062 78.6824 77.2238 78.3494 77.0466 78.1256L75.353 75.9862C75.1946 75.7859 74.9141 75.7309 74.692 75.8567L72.8559 76.8946L69.398 75.2792L71.5582 75.0566C71.8229 75.0294 72.0321 74.8034 72.0233 74.52C72.0178 74.3462 71.915 74.1912 71.77 74.0954C70.9609 73.5609 70.3035 72.8465 69.835 72.0093C70.4727 71.9098 71.2943 71.7992 72.356 71.6798C74.1755 71.4737 76.0216 71.9419 77.5551 72.9972C78.2931 73.5041 79.0265 73.8763 79.735 74.1034C79.7872 74.1201 79.8404 74.128 79.8931 74.128C80.0913 74.128 80.2802 74.0138 80.3669 73.8202C80.4566 73.6195 80.3983 73.3826 80.2429 73.2271L78.007 70.9904L80.2986 71.2866C80.7394 71.3432 81.1031 71.6915 81.1561 72.1827C81.17 72.3132 81.1403 72.4427 81.1044 72.5688C81.0348 72.8137 81.1535 73.0784 81.3958 73.1851C81.5873 73.2695 81.8122 73.2201 81.9669 73.079L83.5639 71.6229C84.0145 71.2129 84.2282 70.6075 84.1352 70.0041ZM75.524 53.6139C75.6296 54.2753 75.5735 54.9602 75.3477 55.6134C74.938 56.7979 74.0274 57.7216 72.8465 58.1488L72.7074 58.1999C71.2109 58.7425 70.1018 59.9498 69.6721 61.4442C69.0477 61.0204 68.6371 60.6763 68.3683 60.4156C68.4724 59.7802 68.6634 59.18 68.9264 58.6668C69.5519 57.4458 70.6935 57.0853 71.9021 56.7035C72.6775 56.4585 73.4796 56.2052 74.1582 55.7134C74.918 55.1626 75.3177 54.369 75.524 53.6139ZM49.3573 36.7404C52.1437 39.1072 54.7272 40.8906 55.0225 41.0928C56.5667 42.6653 58.4826 44.2647 60.7523 45.5008C60.8309 45.5437 60.9158 45.564 60.9996 45.564C61.1831 45.564 61.3611 45.4663 61.4549 45.2936C61.5918 45.0425 61.4991 44.7278 61.2477 44.5909C56.1366 41.807 52.5399 36.9507 50.6419 33.3738C53.18 36.0971 55.7341 38.0988 56.2177 38.4703C57.536 39.9353 59.1634 41.3743 61.1718 42.6598C61.2584 42.7152 61.3551 42.7416 61.4505 42.7415C61.6212 42.7415 61.7884 42.6572 61.8874 42.5027C62.0416 42.2618 61.9713 41.9413 61.7303 41.7872C58.6955 39.845 56.2305 37.3106 54.4034 34.2543C53.5214 32.7786 52.925 31.4005 52.5278 30.2843C54.775 32.843 57.4057 35.4552 57.7079 35.754C58.8242 37.3 60.1425 38.7807 61.628 40.1553C61.8639 40.374 62.2491 40.3305 62.4258 40.0395C62.5543 39.8279 62.5021 39.5528 62.3206 39.3846C60.8787 38.0489 59.6006 36.6115 58.5218 35.1123C56.7532 32.6535 55.817 30.4353 55.3432 29.0074C55.2623 28.7636 55.1919 28.534 55.1302 28.3199L65.6093 40.0617C65.7861 40.2597 66.09 40.297 66.3145 40.1259C66.4519 40.0211 66.5205 39.8485 66.5125 39.6759L66.4556 38.458L74.6856 51.6542C74.7146 52.1217 74.7506 54.0041 73.5503 54.874C73.0075 55.2673 72.3191 55.4848 71.5901 55.7151C70.295 56.1241 68.8274 56.5877 68.0045 58.1938C67.7561 58.6784 67.5637 59.2253 67.4336 59.8023C67.2519 59.8526 67.1104 59.9974 67.0673 60.183C66.8713 61.0267 66.706 61.8326 66.5704 62.6027C65.3266 62.114 64.4008 61.0095 64.1716 59.6188C63.9988 58.5708 64.2943 57.4992 64.932 56.6496C65.8122 55.4768 66.2034 53.9906 65.9383 52.5485C65.6309 50.8766 64.5497 49.4896 63.0229 48.7834L61.4834 48.0714C61.6539 48.0415 61.8058 47.9275 61.8751 47.7551C61.9819 47.4896 61.8533 47.1879 61.5878 47.0812C55.9131 44.7983 51.7509 40.5153 49.3573 36.7404ZM63.9091 50.6916C64.3612 51.1878 64.6905 51.7926 64.8599 52.464C65.1664 53.6793 64.9109 54.9513 64.1589 55.9539L64.0685 56.0744C63.0736 57.4007 62.8172 59.1233 63.3825 60.6819C63.8929 62.0891 65.0039 63.1673 66.4023 63.6439C66.3862 63.7538 66.3705 63.8633 66.3558 63.9717C63.1368 63.5624 61.3846 60.6123 61.1621 58.5364C61.0161 57.1725 61.7734 56.2453 62.5752 55.2635C63.0893 54.634 63.621 53.9829 63.9192 53.2001C64.2535 52.3229 64.1516 51.438 63.9091 50.6916ZM49.7707 41.6336C52.1833 43.154 54.6082 44.2961 55.0372 44.4949C55.9241 45.182 56.8454 45.8072 57.7997 46.3683L51.8896 43.6349C51.1267 42.983 50.4091 42.3039 49.7707 41.6336ZM50.9989 63.9986C50.8331 64.0448 50.7422 63.9382 50.7108 63.8903C50.6794 63.8423 50.618 63.7163 50.7268 63.5828L51.1562 63.0558C51.294 62.8867 51.3111 62.6494 51.199 62.4624C51.0868 62.2751 50.8693 62.1787 50.6555 62.2202L49.0804 62.5276C48.9184 62.5584 48.835 62.4528 48.8069 62.4057C48.7785 62.3586 48.724 62.235 48.8284 62.1068L49.4476 61.347C49.5845 61.179 49.6023 60.9436 49.4922 60.7568C49.3823 60.5702 49.168 60.4723 48.9544 60.5099L47.2009 60.8247C47.0494 60.8519 46.9665 60.7558 46.9382 60.7132C46.9097 60.6705 46.8523 60.5574 46.9352 60.4278L47.3004 59.857C47.5971 59.7866 47.8966 59.712 48.1997 59.6322C51.027 58.8889 53.035 58.0242 53.119 57.9878C53.3815 57.8741 53.5021 57.5692 53.3884 57.3066C53.2747 57.0442 52.9698 56.9235 52.7072 57.0371C52.6406 57.066 47.0722 59.4465 41.6502 59.6181C42.9937 59.145 44.2087 58.6282 44.5105 58.4982C46.8702 58.2802 49.1365 57.75 50.9901 56.805C51.245 56.6751 51.3462 56.3631 51.2163 56.1083C51.0866 55.8533 50.7747 55.7519 50.5196 55.882C48.1208 57.1049 43.923 57.9197 39.1151 57.4749C40.9886 57.149 42.1032 56.7123 42.4248 56.5748C42.4585 56.5749 42.4919 56.5754 42.5256 56.5754C45.0469 56.5753 47.6963 56.2663 50.1896 55.489C50.4627 55.4039 50.6152 55.1136 50.53 54.8403C50.4447 54.5672 50.1545 54.4144 49.8813 54.5C45.0263 56.0135 39.5762 55.6873 35.772 54.7869C38.6483 54.7385 41.3322 54.3595 41.7844 54.2926C42.4796 54.3477 43.1729 54.3786 43.8636 54.3786C45.5531 54.3785 47.228 54.2138 48.878 53.8837C49.1585 53.8276 49.3405 53.5547 49.2844 53.2742C49.2282 52.9937 48.9556 52.8108 48.6748 52.8678C42.6769 54.0672 36.8486 52.7656 32.7775 50.9196C36.3953 51.3711 39.5271 51.4482 39.8988 51.456C41.5624 51.8186 43.4202 52.0732 45.3679 52.0732C45.9418 52.0732 46.5235 52.0512 47.1098 52.0034C47.3949 51.9802 47.6072 51.7303 47.584 51.4451C47.5607 51.1599 47.3093 50.9474 47.0257 50.9707C41.2248 51.4435 35.555 49.3517 32.0073 47.3996C35.6134 48.2845 38.839 48.56 39.4593 48.607C41.2935 49.0915 43.3545 49.3985 45.6331 49.3984C45.7226 49.3984 45.8139 49.3979 45.9041 49.397C46.1901 49.394 46.4196 49.1595 46.4166 48.8734C46.4137 48.5893 46.1822 48.3609 45.8988 48.3609C45.8968 48.3609 45.895 48.3609 45.8932 48.3609C42.2931 48.3993 38.8396 47.6302 35.6364 46.0748C34.09 45.3238 32.8359 44.4978 31.892 43.7818C35.1038 44.6712 38.6508 45.4023 39.1912 45.5122C40.8323 46.1397 42.7334 46.685 44.9134 47.0517C45.1952 47.0996 45.4626 46.9088 45.5101 46.6269C45.5576 46.3447 45.3674 46.0775 45.0852 46.0301C40.2307 45.2133 36.8355 43.4503 34.8423 42.1151C34.09 41.611 33.4753 41.1286 32.993 40.7131L48.1925 44.793C48.4405 44.8602 48.7062 44.7347 48.8078 44.4857C48.8771 44.3161 48.8424 44.1214 48.7349 43.9731L48.0212 42.9876L61.5381 49.2391C61.9792 49.4431 62.3458 49.7812 62.5758 50.2094C62.9391 50.8852 63.3071 51.8985 62.9515 52.832C62.713 53.458 62.2564 54.0169 61.7731 54.6088C60.914 55.6608 59.9403 56.8531 60.1326 58.6473C60.2893 60.1106 60.9852 61.62 62.0421 62.7888C62.582 63.3859 63.3724 64.06 64.4398 64.5171L60.8996 68.4427C60.7941 68.5597 60.6678 68.5311 60.6183 68.5136C60.5689 68.4959 60.4531 68.4379 60.4457 68.2804C60.4372 68.0996 60.3346 67.9363 60.1756 67.8499C60.0164 67.7634 59.8237 67.7664 59.6673 67.8577L58.9264 68.29C58.7978 68.365 58.6889 68.3078 58.6479 68.28C58.607 68.252 58.5143 68.1711 58.5375 68.024L58.5513 67.9363C58.5793 67.7594 58.5138 67.5806 58.3782 67.4635C58.2427 67.3465 58.0562 67.3076 57.885 67.361L56.7131 67.7273C56.5658 67.7735 56.4719 67.688 56.4382 67.6491C56.4047 67.6102 56.3336 67.5051 56.4001 67.3658L56.6182 66.9097C56.7117 66.7142 56.6735 66.4811 56.5226 66.3255C56.3718 66.1699 56.1398 66.1247 55.9417 66.2123L54.908 66.6683C54.7554 66.7355 54.6507 66.6488 54.6126 66.6082C54.5746 66.5677 54.4945 66.4577 54.5711 66.3097L54.8119 65.8453C54.909 65.6582 54.8829 65.4308 54.7458 65.2705C54.6088 65.1101 54.3882 65.0487 54.1882 65.1156L52.8338 65.5669C52.6744 65.62 52.5782 65.5223 52.5443 65.4778C52.5103 65.4332 52.4413 65.3146 52.5346 65.1749L53.0742 64.3653C53.1944 64.1851 53.1897 63.9493 53.0625 63.7739C52.9354 63.5986 52.7124 63.5211 52.504 63.5791L50.9989 63.9986ZM54.1263 67.5364L45.0295 72.4955C44.7436 72.184 44.5045 71.8537 44.3056 71.525L53.6321 66.9896C53.689 67.1066 53.7636 67.2172 53.8572 67.3169C53.9386 67.4038 54.0296 67.4766 54.1263 67.5364ZM51.7153 66.0976C51.7174 66.1003 51.7189 66.1033 51.721 66.106C51.862 66.2907 52.0417 66.428 52.2412 66.5138L43.8358 70.6014C43.6376 70.1327 43.5168 69.7183 43.4474 69.4327L51.7153 66.0976ZM29.1501 75.1998L42.4788 69.8234C42.5654 70.1511 42.7005 70.5796 42.9046 71.0542L30.6438 77.0166C29.9643 76.2888 29.4575 75.6294 29.1501 75.1998ZM31.4146 77.7939L43.3719 71.9792C43.5736 72.3231 43.8123 72.6707 44.0953 73.005L32.9509 79.0804C32.3873 78.6675 31.8734 78.2289 31.4146 77.7939ZM37.7299 81.1593C36.3223 80.9489 35.0445 80.4108 33.9228 79.7304L44.8591 73.7684C45.2927 74.1341 45.7989 74.4576 46.3883 74.7086C43.1114 76.9563 39.8328 79.327 37.7299 81.1593ZM47.4502 73.9843C46.8313 73.8113 46.3033 73.5466 45.8541 73.226L55.4453 67.9973C55.4972 68.1141 55.567 68.2252 55.655 68.3268C55.7083 68.3883 55.7672 68.4416 55.8285 68.491C54.0281 69.6353 50.8087 71.706 47.4502 73.9843ZM63.5433 81.7688L63.4505 81.9545L60.2757 80.7592L60.2269 80.2194L63.5433 81.7688ZM64.2677 72.8977C63.087 73.2774 61.8068 73.564 60.4565 73.7527L60.0919 71.1424C60.0523 70.8591 59.7903 70.663 59.5072 70.7011C59.2238 70.7407 59.0262 71.0024 59.0658 71.2859L59.456 74.0799C59.6772 75.6636 60.4253 77.1119 61.5595 78.2034L59.5369 78.4111C59.2547 78.4403 59.0484 78.6906 59.0739 78.9732L59.1943 80.3049L57.3895 79.5175C57.1888 79.4298 56.9548 79.4781 56.8047 79.6377L56.1304 80.3558L56.5993 72.7739C56.6171 72.4884 56.3997 72.2424 56.1143 72.225C55.8279 72.2045 55.583 72.4244 55.5653 72.71L55.4854 74.0009C53.7673 73.948 51.9734 73.7558 50.1329 73.4294C53.6862 71.0647 56.7488 69.131 57.6102 68.59C57.7057 68.8048 57.858 68.9946 58.0627 69.1345C58.4804 69.42 59.0111 69.4391 59.4479 69.1841L59.6727 69.0529C59.8215 69.2484 60.0263 69.4016 60.2693 69.4885C60.413 69.5398 60.561 69.5647 60.7073 69.5647C61.0672 69.5647 61.4174 69.4142 61.6685 69.1356L65.5141 64.8713C65.744 64.9255 65.9835 64.9692 66.2331 65.0004C65.9455 67.8488 66.1688 70.0936 66.9036 71.7891C66.4469 72.0433 65.5712 72.4774 64.2677 72.8977ZM72.177 77.7218L72.0841 77.9075L68.9093 76.7122L68.8605 76.1724L72.177 77.7218ZM70.1925 74.1564L68.1701 74.3648C67.8879 74.3938 67.6816 74.6444 67.7073 74.9269L67.8279 76.2579L66.023 75.4697C65.8223 75.3823 65.5879 75.4303 65.4379 75.59L64.764 76.3081L64.9214 73.7714C66.0834 73.3739 66.9002 72.9736 67.3738 72.7128C67.8039 72.4761 68.2645 72.3019 68.7454 72.2029L68.7608 72.1998C69.1237 72.9334 69.6069 73.5938 70.1925 74.1564ZM82.8658 70.8582L82.0726 71.5813C82.0219 71.4402 81.9552 71.3037 81.8729 71.1746C81.5503 70.6696 81.0246 70.3361 80.4308 70.2599L76.6325 69.769C76.6102 69.7662 76.5879 69.7648 76.5659 69.7648C76.3705 69.7648 76.1892 69.8754 76.1012 70.0541C76.0035 70.253 76.043 70.4922 76.1997 70.649L77.0563 71.506C75.5641 70.7658 73.8928 70.464 72.2397 70.6511C70.1475 70.8862 68.6739 71.1221 67.8433 71.3544C66.9009 69.1643 66.9079 65.885 67.8649 61.37C70.5366 63.7709 77.2199 66.3389 80.1854 67.4036C80.3448 67.4604 80.4162 67.6098 80.4162 67.7327C80.4162 67.7827 80.4062 67.8304 80.3865 67.8741C80.3845 67.8788 80.3824 67.8835 80.3804 67.8883L80.3769 67.8951C80.3754 67.8978 80.3738 67.9006 80.3724 67.9033C80.2893 68.057 80.102 68.1247 79.9381 68.0617L74.6841 66.0234C74.4173 65.9199 74.1172 66.0523 74.0138 66.319C73.9103 66.5858 74.0426 66.8858 74.3093 66.9894L76.4666 67.8262L76.6642 68.6971C76.7877 69.2418 77.176 69.678 77.7028 69.8638C77.8797 69.9261 78.0622 69.9568 78.2431 69.9568C78.6009 69.9568 78.9527 69.837 79.2437 69.6068L79.8768 69.1056C80.2721 69.1593 80.6709 69.0417 80.9694 68.786L82.6674 69.5719C82.909 69.6836 83.0709 69.8987 83.1114 70.1622C83.1518 70.4252 83.0624 70.6789 82.8658 70.8582ZM78.7194 68.7002L78.6003 68.7945C78.4407 68.9208 78.239 68.9545 78.0472 68.8867C77.8552 68.8191 77.7194 68.6664 77.6743 68.468L77.6312 68.2781L78.7194 68.7002Z" fill="#87775E"/>
</g>
</g>
<defs>
<filter id="filter0_i_189_4241" x="0" y="0" width="112" height="116" filterUnits="userSpaceOnUse" color-interpolation-filters="sRGB">
<feFlood flood-opacity="0" result="BackgroundImageFix"/>
<feBlend mode="normal" in="SourceGraphic" in2="BackgroundImageFix" result="shape"/>
<feColorMatrix in="SourceAlpha" type="matrix" values="0 0 0 0 0 0 0 0 0 0 0 0 0 0 0 0 0 0 127 0" result="hardAlpha"/>
<feOffset dy="4"/>
<feGaussianBlur stdDeviation="2"/>
<feComposite in2="hardAlpha" operator="arithmetic" k2="-1" k3="1"/>
<feColorMatrix type="matrix" values="0 0 0 0 0 0 0 0 0 0 0 0 0 0 0 0 0 0 0.25 0"/>
<feBlend mode="normal" in2="shape" result="effect1_innerShadow_189_4241"/>
</filter>
<clipPath id="clip0_189_4241">
<rect width="112" height="112" fill="white"/>
</clipPath>
<clipPath id="clip1_189_4241">
<rect width="60" height="60" fill="white" transform="translate(26 26)"/>
</clipPath>
</defs>
</svg>
