<svg width="112" height="112" viewBox="0 0 112 112" fill="none" xmlns="http://www.w3.org/2000/svg">
<g clip-path="url(#clip0_189_4254)" filter="url(#filter0_i_189_4254)">
<path d="M56 112C86.9279 112 112 86.9279 112 56C112 25.0721 86.9279 0 56 0C25.0721 0 0 25.0721 0 56C0 86.9279 25.0721 112 56 112Z" fill="#ECE4B7"/>
<g clip-path="url(#clip1_189_4254)">
<path d="M74.3137 59.9867C74.8515 59.9867 75.2875 59.5507 75.2875 59.0129C75.2875 58.4751 74.8515 58.0391 74.3137 58.0391C73.7758 58.0391 73.3398 58.4751 73.3398 59.0129C73.3398 59.5507 73.7758 59.9867 74.3137 59.9867Z" fill="#317D80"/>
<path d="M85.9629 58.6967C85.885 58.4233 85.6916 58.1975 85.4331 58.0788L68.9769 50.5113L62.3236 47.46L54.0069 43.833C53.711 43.7039 53.3701 43.7298 53.0971 43.9025C52.8242 44.0751 52.6545 44.3718 52.6443 44.6947C52.6211 45.4259 52.5941 48.4678 53.6139 50.4785L46.0272 53.1521L27.4236 43.4687C27.0061 43.2516 26.4934 43.3638 26.2049 43.7352C25.9164 44.1065 25.9347 44.6314 26.2484 44.9819L32.2865 51.7287L27.059 55.0626C26.7786 55.2416 26.6088 55.5512 26.6088 55.8839C26.6088 56.2164 26.7786 56.5261 27.0591 56.7049L32.2862 60.0377L26.2481 66.7844C25.9432 67.1253 25.9164 67.6323 26.1839 68.0033C26.3717 68.2638 26.6686 68.4078 26.9743 68.4078C27.1041 68.4078 27.2356 68.3818 27.3606 68.3277L45.8786 60.3171C46.6919 60.7978 48.5715 61.8646 51.1424 63.0513C49.8529 64.681 49.3576 67.1301 49.2907 67.4889C49.2345 67.7911 49.3241 68.1022 49.5326 68.3281C49.7179 68.5287 49.9779 68.6412 50.248 68.6412C50.2819 68.6412 50.3159 68.6394 50.3497 68.6359L63.8535 67.2167C65.7314 67.5555 67.6655 67.7628 69.5871 67.7628C76.7422 67.7628 82.2099 64.9831 85.8381 59.5009C85.9953 59.264 86.0407 58.9701 85.9629 58.6967ZM59.5642 48.3815L55.4686 49.8248C54.9872 49.0464 54.7192 47.575 54.6247 46.2274L59.5642 48.3815ZM51.5477 66.5517C51.8728 65.5599 52.3804 64.438 53.0155 63.8809C53.0333 63.8884 53.0507 63.896 53.0685 63.9035C54.5802 64.5433 56.3677 65.2273 58.3235 65.8395L51.5477 66.5517ZM69.5874 65.8153C58.4841 65.8153 46.5867 58.4723 46.4681 58.3981C46.3111 58.3 46.132 58.2502 45.9522 58.2502C45.821 58.2502 45.6893 58.2767 45.5656 58.3302L30.6559 64.78L34.5021 60.4822C34.6927 60.2693 34.7802 59.9832 34.7412 59.7002C34.7024 59.4171 34.5409 59.1652 34.2999 59.0117L29.3938 55.8836L34.3 52.7546C34.5409 52.6009 34.7022 52.3493 34.7412 52.0661C34.7801 51.783 34.6928 51.4971 34.5021 51.2841L31.2601 47.6615L45.5026 55.075C45.7418 55.1995 46.0217 55.2194 46.276 55.1295L62.1741 49.527L83.5546 59.3588C80.3177 63.644 75.6245 65.8153 69.5874 65.8153Z" fill="#317D80"/>
<path d="M69.7222 59.6517C67.5551 58.8388 65.2599 56.6499 63.0847 53.3218C62.8454 52.9556 62.3913 52.7943 61.9742 52.9265C61.5574 53.0593 61.2801 53.4536 61.2964 53.8909C61.3566 55.5114 61.4572 57.1502 61.5962 58.7703C60.6439 59.4181 59.716 59.8892 58.832 60.1728C58.4353 60.3002 58.1634 60.6657 58.1559 61.0823C58.1483 61.4989 58.4066 61.8741 58.7983 62.0158C60.3016 62.5597 61.8914 62.8354 63.5232 62.8354C63.5233 62.8354 63.5233 62.8354 63.5235 62.8354C65.6413 62.8354 67.807 62.356 69.7862 61.4488C70.1437 61.2848 70.3676 60.922 70.3537 60.5289C70.3396 60.1359 70.0907 59.7898 69.7222 59.6517ZM62.0444 60.7988C62.4249 60.5659 62.8074 60.3088 63.1909 60.028C63.4669 59.8259 63.6166 59.4941 63.5855 59.1534C63.5223 58.4625 63.4662 57.7672 63.4173 57.0707C64.5886 58.4855 65.7806 59.5993 66.9864 60.4057C65.3558 60.8607 63.6586 60.9951 62.0444 60.7988Z" fill="#317D80"/>
</g>
</g>
<defs>
<filter id="filter0_i_189_4254" x="0" y="0" width="112" height="116" filterUnits="userSpaceOnUse" color-interpolation-filters="sRGB">
<feFlood flood-opacity="0" result="BackgroundImageFix"/>
<feBlend mode="normal" in="SourceGraphic" in2="BackgroundImageFix" result="shape"/>
<feColorMatrix in="SourceAlpha" type="matrix" values="0 0 0 0 0 0 0 0 0 0 0 0 0 0 0 0 0 0 127 0" result="hardAlpha"/>
<feOffset dy="4"/>
<feGaussianBlur stdDeviation="2"/>
<feComposite in2="hardAlpha" operator="arithmetic" k2="-1" k3="1"/>
<feColorMatrix type="matrix" values="0 0 0 0 0 0 0 0 0 0 0 0 0 0 0 0 0 0 0.25 0"/>
<feBlend mode="normal" in2="shape" result="effect1_innerShadow_189_4254"/>
</filter>
<clipPath id="clip0_189_4254">
<rect width="112" height="112" fill="white"/>
</clipPath>
<clipPath id="clip1_189_4254">
<rect width="60" height="60" fill="white" transform="translate(26 26)"/>
</clipPath>
</defs>
</svg>
