<svg width="112" height="112" viewBox="0 0 112 112" fill="none" xmlns="http://www.w3.org/2000/svg">
<g clip-path="url(#clip0_153_1510)" filter="url(#filter0_i_153_1510)">
<path d="M56 112C86.9279 112 112 86.9279 112 56C112 25.0721 86.9279 0 56 0C25.0721 0 0 25.0721 0 56C0 86.9279 25.0721 112 56 112Z" fill="#CCD5AE"/>
<path d="M90.6582 55.335C87.769 49.714 83.4028 44.9735 78.0318 41.6259C72.5081 38.1831 66.1318 36.3632 59.592 36.3632C50.7642 36.3632 42.4583 39.6066 36.0062 45.5353C33.0355 41.2827 28.3595 38.4453 23.1746 37.828L21.9161 37.6782L21.5954 38.9042C21.2003 40.4144 21 41.9764 21 43.5473C21 48.1717 22.7663 52.6304 25.8907 56C22.7663 59.3696 21 63.8283 21 68.4527C21 70.0236 21.2003 71.5856 21.5952 73.0956L21.9159 74.3217L23.1744 74.1719C28.3594 73.5545 33.0353 70.7173 36.006 66.4646C42.4582 72.3932 50.764 75.6366 59.5919 75.6366C66.1318 75.6366 72.5081 73.8168 78.0317 70.374C83.4027 67.0265 87.7687 62.2859 90.658 56.6649L91 55.9999L90.6582 55.335ZM59.5919 72.7275C50.9375 72.7275 42.8305 69.3267 36.764 63.1517L35.4002 61.7634L34.4549 63.4644C32.2724 67.3916 28.4763 70.1657 24.1312 71.0706C23.9837 70.2088 23.9091 69.3325 23.9091 68.4527C23.9091 64.1341 25.7409 59.987 28.9346 57.0749L30.1134 56L28.9346 54.9251C25.7409 52.013 23.9091 47.8661 23.9091 43.5473C23.9091 42.6675 23.9837 41.7912 24.1312 40.9294C28.4763 41.8342 32.2724 44.6083 34.4549 48.5356L35.4002 50.2366L36.764 48.8483C42.8305 42.6733 50.9375 39.2725 59.5919 39.2725C71.3931 39.2725 82.1014 45.662 87.7192 56C82.1014 66.338 71.3931 72.7275 59.5919 72.7275Z" fill="#998470"/>
<path d="M61.0372 45.0908H58.1281V66.9092H61.0372V45.0908Z" fill="#998470"/>
<path d="M52.3098 46.5769H49.4006V65.423H52.3098V46.5769Z" fill="#998470"/>
<path d="M69.7646 46.574H66.8555V65.4262H69.7646V46.574Z" fill="#998470"/>
<path d="M78.4919 53.0909C76.8878 53.0909 75.5828 54.3959 75.5828 56C75.5828 57.6041 76.8878 58.9091 78.4919 58.9091C80.096 58.9091 81.401 57.6041 81.401 56C81.401 54.3959 80.096 53.0909 78.4919 53.0909Z" fill="#998470"/>
<path d="M43.5823 51.7681H40.6732V60.2319H43.5823V51.7681Z" fill="#998470"/>
</g>
<defs>
<filter id="filter0_i_153_1510" x="0" y="0" width="112" height="116" filterUnits="userSpaceOnUse" color-interpolation-filters="sRGB">
<feFlood flood-opacity="0" result="BackgroundImageFix"/>
<feBlend mode="normal" in="SourceGraphic" in2="BackgroundImageFix" result="shape"/>
<feColorMatrix in="SourceAlpha" type="matrix" values="0 0 0 0 0 0 0 0 0 0 0 0 0 0 0 0 0 0 127 0" result="hardAlpha"/>
<feOffset dy="4"/>
<feGaussianBlur stdDeviation="2"/>
<feComposite in2="hardAlpha" operator="arithmetic" k2="-1" k3="1"/>
<feColorMatrix type="matrix" values="0 0 0 0 0 0 0 0 0 0 0 0 0 0 0 0 0 0 0.25 0"/>
<feBlend mode="normal" in2="shape" result="effect1_innerShadow_153_1510"/>
</filter>
<clipPath id="clip0_153_1510">
<rect width="112" height="112" fill="white"/>
</clipPath>
</defs>
</svg>
