<svg xmlns="http://www.w3.org/2000/svg" width="70" height="60" fill="none" viewBox="0 0 70 60">
  <path fill="#939D73" d="M0 13C0 5.82 5.82 0 13 0h57v60H13C5.82 60 0 54.18 0 47V13Z"/>
  <path fill="#FAEDCD" d="M47.5 39.563H40V34.18h-3.35c-1.425 3.256-4.5 5.382-7.9 5.382-4.825 0-8.75-4.225-8.75-9.418s3.925-9.418 8.75-9.418c3.4 0 6.462 2.126 7.9 5.382H50v8.072h-2.5v5.382Zm-5-2.691H45V31.49h2.5V28.8H34.925l-.287-.902c-.875-2.677-3.25-4.48-5.888-4.48-3.45 0-6.25 3.014-6.25 6.727 0 3.713 2.8 6.727 6.25 6.727 2.637 0 5.013-1.803 5.888-4.48l.287-.902H42.5v5.382Zm-13.75-2.69c-2.063 0-3.75-1.817-3.75-4.037 0-2.22 1.688-4.036 3.75-4.036 2.063 0 3.75 1.816 3.75 4.036 0 2.22-1.688 4.036-3.75 4.036Zm0-5.383c-.688 0-1.25.606-1.25 1.346 0 .74.563 1.345 1.25 1.345.688 0 1.25-.605 1.25-1.345s-.563-1.346-1.25-1.346Z"/>
</svg>
