<svg width="178" height="100" viewBox="0 0 178 100" fill="none" xmlns="http://www.w3.org/2000/svg">
<path d="M20.58 96.8C18.2 96.8 15.8433 96.4733 13.51 95.82C11.2233 95.1667 9.59 94.56 8.61 94L10.29 87C13.37 89.0067 16.73 90.01 20.37 90.01C23.17 90.01 25.5267 89.3333 27.44 87.98C29.3533 86.6267 30.3333 83.99 30.38 80.07V74.33C29.4 76.15 27.8133 77.6667 25.62 78.88C23.4267 80.0933 21 80.7 18.34 80.7C15.54 80.7 12.9733 80.0233 10.64 78.67C8.30667 77.27 6.46333 75.2867 5.11 72.72C3.75667 70.1533 3.08 67.1667 3.08 63.76C3.08 60.4933 3.71 57.6 4.97 55.08C6.27667 52.5133 8.12 50.53 10.5 49.13C12.88 47.73 15.6567 47.03 18.83 47.03C20.6967 47.03 22.4467 47.3567 24.08 48.01C25.7133 48.6633 27.09 49.48 28.21 50.46C29.3767 51.3933 30.1467 52.3267 30.52 53.26L30.66 47.87H37.8V79.79C37.8 85.25 36.4 89.45 33.6 92.39C30.8 95.33 26.46 96.8 20.58 96.8ZM20.44 74.33C23.1 74.33 25.34 73.42 27.16 71.6C28.98 69.7333 29.89 67.3067 29.89 64.32V63.83C29.89 61.8233 29.47 60.0267 28.63 58.44C27.79 56.8533 26.6467 55.6167 25.2 54.73C23.7533 53.8433 22.1667 53.4 20.44 53.4C17.4533 53.4 15.1433 54.38 13.51 56.34C11.8767 58.2533 11.06 60.75 11.06 63.83C11.06 66.9567 11.8533 69.5 13.44 71.46C15.0733 73.3733 17.4067 74.33 20.44 74.33Z" fill="#998470"/>
<path d="M101.95 81.7C98.6367 81.7 95.6967 80.9533 93.13 79.46C90.5633 77.9667 88.58 75.9367 87.18 73.37C85.78 70.8033 85.08 67.9567 85.08 64.83C85.08 61.75 85.7567 58.9267 87.11 56.36C88.51 53.7933 90.4933 51.7633 93.06 50.27C95.6267 48.7767 98.59 48.03 101.95 48.03C105.31 48.03 108.25 48.7767 110.77 50.27C113.337 51.7633 115.297 53.7933 116.65 56.36C118.05 58.9267 118.75 61.75 118.75 64.83C118.75 67.9567 118.05 70.8033 116.65 73.37C115.25 75.9367 113.267 77.9667 110.7 79.46C108.18 80.9533 105.263 81.7 101.95 81.7ZM102.16 75.54C104.867 75.54 106.99 74.5367 108.53 72.53C110.117 70.5233 110.91 68.0033 110.91 64.97C110.91 61.9367 110.07 59.3933 108.39 57.34C106.71 55.24 104.493 54.19 101.74 54.19C99.08 54.19 96.9333 55.2167 95.3 57.27C93.7133 59.3233 92.92 61.89 92.92 64.97C92.92 67.9567 93.7833 70.4767 95.51 72.53C97.2367 74.5367 99.4533 75.54 102.16 75.54ZM146.424 63.15L136.904 81H135.574L122.064 48.87H130.184L137.114 67.56L146.284 48.87H146.564L155.804 67.42L162.734 48.87H170.714L157.274 81H155.944L146.424 63.15Z" fill="#998470"/>
<path d="M44.2733 49.0751C54.8879 47.3822 60.9802 50.9916 64.3636 55.7403V55.7084C62.5945 47.7229 67.0725 30.964 87.7267 34.4777C88.3016 34.4777 89.7943 35.3933 89.7943 36.7988C89.7943 45.2421 86.9527 57.742 68.9522 56.7518V83.7854C68.9522 84.9992 67.9239 86 66.6523 86C65.5024 86 64.4741 85.0098 64.3525 83.7854V71.2535C45.18 72.9358 42.2057 60.0419 42.2057 51.3962C42.2057 50.8426 42.5374 49.2774 44.2733 49.0751ZM85.2057 38.5662C72.623 36.5326 68.4104 46.4559 68.5541 52.2693C77.9745 53.8558 85.2057 47.9465 85.2057 38.5662ZM63.4348 66.8668C63.5896 61.0534 59.3659 51.1301 46.7943 53.1637C46.7943 62.544 54.0254 68.4639 63.4348 66.8668Z" fill="#939D73"/>
</svg>
