<svg width="178" height="100" viewBox="0 0 178 100" fill="none" xmlns="http://www.w3.org/2000/svg">
<path d="M22.5 90.8C20.12 90.8 17.7633 90.4733 15.43 89.82C13.1433 89.1667 11.51 88.56 10.53 88L12.21 81C15.29 83.0067 18.65 84.01 22.29 84.01C25.09 84.01 27.4467 83.3333 29.36 81.98C31.2733 80.6267 32.2533 77.99 32.3 74.07V68.33C31.32 70.15 29.7333 71.6667 27.54 72.88C25.3467 74.0933 22.92 74.7 20.26 74.7C17.46 74.7 14.8933 74.0233 12.56 72.67C10.2267 71.27 8.38333 69.2867 7.03 66.72C5.67667 64.1533 5 61.1667 5 57.76C5 54.4933 5.63 51.6 6.89 49.08C8.19667 46.5133 10.04 44.53 12.42 43.13C14.8 41.73 17.5767 41.03 20.75 41.03C22.6167 41.03 24.3667 41.3567 26 42.01C27.6333 42.6633 29.01 43.48 30.13 44.46C31.2967 45.3933 32.0667 46.3267 32.44 47.26L32.58 41.87H39.72V73.79C39.72 79.25 38.32 83.45 35.52 86.39C32.72 89.33 28.38 90.8 22.5 90.8ZM22.36 68.33C25.02 68.33 27.26 67.42 29.08 65.6C30.9 63.7333 31.81 61.3067 31.81 58.32V57.83C31.81 55.8233 31.39 54.0267 30.55 52.44C29.71 50.8533 28.5667 49.6167 27.12 48.73C25.6733 47.8433 24.0867 47.4 22.36 47.4C19.3733 47.4 17.0633 48.38 15.43 50.34C13.7967 52.2533 12.98 54.75 12.98 57.83C12.98 60.9567 13.7733 63.5 15.36 65.46C16.9933 67.3733 19.3267 68.33 22.36 68.33Z" fill="#998470"/>
<path d="M103.87 75.7C100.557 75.7 97.6167 74.9533 95.05 73.46C92.4833 71.9667 90.5 69.9367 89.1 67.37C87.7 64.8033 87 61.9567 87 58.83C87 55.75 87.6767 52.9267 89.03 50.36C90.43 47.7933 92.4133 45.7633 94.98 44.27C97.5467 42.7767 100.51 42.03 103.87 42.03C107.23 42.03 110.17 42.7767 112.69 44.27C115.257 45.7633 117.217 47.7933 118.57 50.36C119.97 52.9267 120.67 55.75 120.67 58.83C120.67 61.9567 119.97 64.8033 118.57 67.37C117.17 69.9367 115.187 71.9667 112.62 73.46C110.1 74.9533 107.183 75.7 103.87 75.7ZM104.08 69.54C106.787 69.54 108.91 68.5367 110.45 66.53C112.037 64.5233 112.83 62.0033 112.83 58.97C112.83 55.9367 111.99 53.3933 110.31 51.34C108.63 49.24 106.413 48.19 103.66 48.19C101 48.19 98.8533 49.2167 97.22 51.27C95.6333 53.3233 94.84 55.89 94.84 58.97C94.84 61.9567 95.7033 64.4767 97.43 66.53C99.1567 68.5367 101.373 69.54 104.08 69.54ZM148.344 57.15L138.824 75H137.494L123.984 42.87H132.104L139.034 61.56L148.204 42.87H148.484L157.724 61.42L164.654 42.87H172.634L159.194 75H157.864L148.344 57.15Z" fill="#998470"/>
<path d="M46.1933 43.0751C56.8079 41.3822 62.9002 44.9916 66.2836 49.7403V49.7084C64.5145 41.7229 68.9925 24.964 89.6467 28.4777C90.2216 28.4777 91.7143 29.3933 91.7143 30.7988C91.7143 39.2421 88.8727 51.742 70.8722 50.7518V77.7854C70.8722 78.9992 69.8439 80 68.5723 80C67.4224 80 66.3941 79.0098 66.2725 77.7854V65.2535C47.1 66.9358 44.1257 54.0419 44.1257 45.3962C44.1257 44.8426 44.4574 43.2774 46.1933 43.0751ZM87.1257 32.5662C74.543 30.5326 70.3304 40.4559 70.4741 46.2693C79.8945 47.8558 87.1257 41.9465 87.1257 32.5662ZM65.3548 60.8668C65.5096 55.0534 61.2859 45.1301 48.7143 47.1637C48.7143 56.544 55.9454 62.4639 65.3548 60.8668Z" fill="#939D73"/>
</svg>
