<svg width="35" height="35" viewBox="0 0 35 35" fill="none" xmlns="http://www.w3.org/2000/svg">
<g clip-path="url(#clip0_189_4428)">
<path d="M29.8648 5.13525C26.5512 1.82172 22.1619 0 17.5 0C12.8381 0 8.44877 1.82172 5.13525 5.13525C1.82172 8.44877 0 12.8381 0 17.5C0 22.1619 1.82172 26.5512 5.13525 29.8648C8.44877 33.1783 12.8381 35 17.5 35C22.1619 35 26.5512 33.1783 29.8648 29.8648C33.1783 26.5512 35 22.1619 35 17.5C35 12.8381 33.1783 8.44877 29.8648 5.13525ZM17.5 1.43443C25.4539 1.43443 32.0738 7.24385 33.3432 14.8391L28.2295 9.72541C28.0861 9.58197 27.8924 9.51025 27.6916 9.51742C27.4908 9.52459 27.3043 9.61783 27.1752 9.77561L22.7428 15.0615L18.0379 9.7541C17.9016 9.60348 17.708 9.51025 17.5 9.51025C17.292 9.51025 17.0984 9.59631 16.9621 9.7541L12.1209 15.2121L7.09324 9.74693C6.95697 9.59631 6.76332 9.51025 6.5625 9.51742C6.36168 9.51742 6.16803 9.60348 6.03176 9.76127L1.69262 14.6527C3.04098 7.14344 9.61783 1.43443 17.5 1.43443ZM28.5092 12.0348L27.7131 12.8309L27.0318 12.1711L27.7705 11.2889L28.5092 12.0348ZM21.8104 16.166L20.3545 17.9088L18.0092 15.5205C17.8729 15.3842 17.6865 15.3053 17.5 15.3053C17.3135 15.3053 17.1199 15.3842 16.9908 15.5205L14.624 17.9303L13.0963 16.2736L17.5 11.3104L21.8104 16.166ZM7.32275 12.1137L6.5625 12.8453L5.83094 12.1424L6.57684 11.3033L7.32275 12.1137ZM1.42008 17.5C1.43443 17.3566 1.43443 17.2203 1.4416 17.0768C1.45594 17.0625 1.46311 17.0553 1.47029 17.041L4.87705 13.2039L6.06762 14.3514C6.20389 14.4877 6.3832 14.5523 6.5625 14.5523C6.7418 14.5523 6.92111 14.4877 7.05738 14.3514L8.28381 13.168L11.1527 16.2879L3.33504 25.0953C2.11578 22.8289 1.42008 20.2469 1.42008 17.5ZM17.5 33.5656C11.9273 33.5656 7.00717 30.7111 4.12398 26.3863L12.1424 17.3566L14.0789 19.4652C14.2152 19.6086 14.4016 19.6947 14.5953 19.6947C14.7889 19.6947 14.9826 19.6229 15.1189 19.4795L17.5072 17.0482L19.8955 19.4795C20.0318 19.6158 20.2182 19.6947 20.4047 19.6947C20.4119 19.6947 20.4262 19.6947 20.4334 19.6947C20.6342 19.6875 20.8279 19.5943 20.957 19.4365L22.7859 17.2561L30.8904 26.3863C27.9928 30.7111 23.0727 33.5656 17.5 33.5656ZM31.6506 25.0953L23.7039 16.1373L26.1066 13.2684L27.2254 14.3443C27.3617 14.4805 27.541 14.5451 27.7203 14.5451C27.9068 14.5451 28.0861 14.4734 28.2295 14.3371L29.5277 13.0389L33.5584 17.0697C33.5656 17.2059 33.5656 17.3494 33.5656 17.4857C33.5656 20.2469 32.8699 22.8361 31.6506 25.0953Z" fill="white"/>
</g>
<defs>
<clipPath id="clip0_189_4428">
<rect width="35" height="35" fill="white"/>
</clipPath>
</defs>
</svg>
