<svg width="40" height="40" viewBox="0 0 40 40" fill="none" xmlns="http://www.w3.org/2000/svg">
<g clip-path="url(#clip0_179_2934)">
<path d="M18.5959 14.2122V18.5959H14.2122C13.4367 18.5959 12.8081 19.2245 12.8081 20C12.8081 20.7755 13.4367 21.4041 14.2122 21.4041H18.5959V25.7878C18.5959 26.5633 19.2244 27.1918 19.9999 27.1918C20.7755 27.1918 21.3959 26.5633 21.3959 25.7878V21.4041H25.7795C26.555 21.4041 27.1836 20.7755 27.1836 20C27.1836 19.2245 26.555 18.5959 25.7795 18.5959H21.3959V14.2122C21.3959 13.4367 20.7673 12.8082 19.9999 12.8082C19.2326 12.8082 18.5959 13.4367 18.5959 14.2122Z" fill="#AA280E"/>
<path d="M5.85306 5.85306C2.08163 9.63265 0 14.6531 0 20C0 25.3469 2.08163 30.3673 5.86122 34.1469C9.63265 37.9184 14.6612 40 20 40C25.3388 40 30.3673 37.9184 34.1469 34.1388C37.9184 30.3673 40 25.3388 40 20C40 14.6612 37.9184 9.63265 34.1388 5.85306C30.3673 2.08163 25.3469 0 20 0C14.6612 0 9.63265 2.08163 5.85306 5.85306ZM37.2 20C37.2 24.5959 35.4122 28.9143 32.1633 32.1633C28.9143 35.4122 24.5959 37.2 20 37.2C15.4041 37.2 11.0857 35.4122 7.83673 32.1633C4.58776 28.9143 2.8 24.5959 2.8 20C2.8 15.4041 4.58776 11.0857 7.83673 7.83673C11.0857 4.58776 15.4041 2.8 20 2.8C24.5959 2.8 28.9143 4.58776 32.1633 7.83673C35.4122 11.0857 37.2 15.4041 37.2 20Z" fill="#AA280E"/>
</g>
<defs>
<clipPath id="clip0_179_2934">
<rect width="40" height="40" fill="white"/>
</clipPath>
</defs>
</svg>
