<svg width="37" height="37" viewBox="0 0 37 37" fill="none" xmlns="http://www.w3.org/2000/svg">
<path d="M18.5003 16.1454C20.2906 16.1454 21.7413 14.6942 21.7413 12.9045V3.24093C21.7413 1.45126 20.2906 0 18.5003 0C16.7101 0 15.2594 1.45126 15.2594 3.24093V12.9045C15.2594 14.6942 16.7101 16.1454 18.5003 16.1454Z" fill="#998470"/>
<path d="M24.4029 4.99396V10.971C27.5666 12.9485 29.6829 16.4534 29.6829 20.4518C29.6829 26.6184 24.6658 31.6344 18.5003 31.6344C12.3343 31.6344 7.31726 26.6167 7.31726 20.4518C7.31726 16.4534 9.43351 12.948 12.5977 10.971V4.99396C6.37927 7.37643 1.95105 13.4048 1.95105 20.4513C1.95105 29.5762 9.37485 37 18.5003 37C27.6253 37 35.0491 29.5762 35.0491 20.4513C35.0491 13.4054 30.6203 7.37643 24.4029 4.99396Z" fill="#998470"/>
</svg>
