<svg width="112" height="112" viewBox="0 0 112 112" fill="none" xmlns="http://www.w3.org/2000/svg">
<g clip-path="url(#clip0_153_1506)" filter="url(#filter0_i_153_1506)">
<path d="M56 112C86.9279 112 112 86.9279 112 56C112 25.0721 86.9279 0 56 0C25.0721 0 0 25.0721 0 56C0 86.9279 25.0721 112 56 112Z" fill="#FAEDCD"/>
<path d="M85.9088 57.9091H84.326L79.0451 41.3639H79.5451C80.2484 41.3639 80.818 40.7939 80.818 40.091C80.818 39.3881 80.2488 38.8181 79.5451 38.8181H56.6362V31.001C58.8259 30.4321 60.4545 28.456 60.4545 26.0908C60.4541 23.2839 58.1714 21 55.3637 21C52.556 21 50.2725 23.2839 50.2725 26.0908C50.2725 28.456 51.9011 30.4318 54.0908 31.001V38.8181H31.1819C30.4786 38.8181 29.909 39.3881 29.909 40.091C29.909 40.7939 30.4783 41.3639 31.1819 41.3639H32.9705L27.7318 57.9091H26.0911C25.3878 57.9091 24.8182 58.4791 24.8182 59.182C24.8182 64.7962 29.386 69.364 35.0002 69.364C40.6144 69.364 45.1821 64.7962 45.1821 59.182C45.1821 58.4791 44.6129 57.9091 43.9092 57.9091H42.3265L37.0452 41.3635H54.0908V82.2056C50.485 82.8144 47.7272 85.9506 47.7272 89.7271C47.7272 90.43 48.2964 91 49 91H61.7274C62.4307 91 63.0003 90.43 63.0003 89.7271C63.0003 85.9506 60.2424 82.8144 56.6366 82.2056V41.3635H74.9705L69.7317 57.9088H68.091C67.3878 57.9088 66.8182 58.4787 66.8182 59.1817C66.8182 64.7959 71.3859 69.3636 77.0001 69.3636C82.6143 69.3636 87.1821 64.7959 87.1821 59.1817C87.1813 58.4791 86.6125 57.9091 85.9088 57.9091ZM42.5305 60.4545C41.9228 64.0615 38.7771 66.8182 34.9998 66.8182C31.2226 66.8182 28.0768 64.0615 27.4691 60.4545H42.5305ZM39.6532 57.9091H30.4006L35.0082 43.3573L39.6532 57.9091ZM52.8179 26.0908C52.8179 24.6871 53.9601 23.5454 55.3633 23.5454C56.7666 23.5454 57.9087 24.6871 57.9087 26.0908C57.9087 27.4944 56.7666 28.6362 55.3633 28.6362C53.9604 28.6362 52.8179 27.4948 52.8179 26.0908ZM60.293 88.4546H50.4345C50.996 86.2766 52.97 84.6627 55.3161 84.6404C55.3329 84.6411 55.3469 84.6499 55.3637 84.6499C55.3806 84.6499 55.3945 84.6407 55.4113 84.6404C57.7575 84.6623 59.7311 86.2762 60.293 88.4546ZM77.0085 43.3573L81.6532 57.9091H72.4009L77.0085 43.3573ZM76.9994 66.8182C73.2221 66.8182 70.0764 64.0615 69.4687 60.4545H84.5301C83.9227 64.0615 80.777 66.8182 76.9994 66.8182Z" fill="#998470"/>
</g>
<defs>
<filter id="filter0_i_153_1506" x="0" y="0" width="112" height="116" filterUnits="userSpaceOnUse" color-interpolation-filters="sRGB">
<feFlood flood-opacity="0" result="BackgroundImageFix"/>
<feBlend mode="normal" in="SourceGraphic" in2="BackgroundImageFix" result="shape"/>
<feColorMatrix in="SourceAlpha" type="matrix" values="0 0 0 0 0 0 0 0 0 0 0 0 0 0 0 0 0 0 127 0" result="hardAlpha"/>
<feOffset dy="4"/>
<feGaussianBlur stdDeviation="2"/>
<feComposite in2="hardAlpha" operator="arithmetic" k2="-1" k3="1"/>
<feColorMatrix type="matrix" values="0 0 0 0 0 0 0 0 0 0 0 0 0 0 0 0 0 0 0.25 0"/>
<feBlend mode="normal" in2="shape" result="effect1_innerShadow_153_1506"/>
</filter>
<clipPath id="clip0_153_1506">
<rect width="112" height="112" fill="white"/>
</clipPath>
</defs>
</svg>
