<svg width="37" height="37" viewBox="0 0 37 37" fill="none" xmlns="http://www.w3.org/2000/svg">
<path d="M34.2246 34.3715C33.1191 26.9344 30.2355 19.6055 23.4323 17.2553C26.0763 15.6087 27.8312 12.6786 27.8312 9.33117C27.8312 4.18241 23.6565 0 18.5 0C13.3435 0 9.16883 4.17468 9.16883 9.33117C9.16883 12.6709 10.9315 15.6087 13.5677 17.2553C6.76453 19.6055 3.87318 26.9344 2.77539 34.3715C2.56666 35.7553 3.65671 37 5.056 37H31.9285C33.3433 37 34.4334 35.7553 34.2246 34.3715ZM12.6864 9.33117C12.6864 6.12286 15.2994 3.50982 18.5077 3.50982C19.2731 3.50982 19.8993 4.13602 19.8993 4.90138C19.8993 5.66674 19.2731 6.29294 18.5077 6.29294C16.8301 6.29294 15.4695 7.65357 15.4695 9.33117C15.4695 10.0965 14.8433 10.7227 14.0779 10.7227C13.3049 10.7227 12.6864 10.1043 12.6864 9.33117Z" fill="#998470"/>
</svg>
