<svg width="112" height="112" viewBox="0 0 112 112" fill="none" xmlns="http://www.w3.org/2000/svg">
<g clip-path="url(#clip0_153_1486)" filter="url(#filter0_i_153_1486)">
<path d="M56 112C86.9279 112 112 86.9279 112 56C112 25.0721 86.9279 0 56 0C25.0721 0 0 25.0721 0 56C0 86.9279 25.0721 112 56 112Z" fill="#D4A373"/>
<g clip-path="url(#clip1_153_1486)">
<path d="M45.7078 26.54C45.1191 25.8194 44.0166 25.8202 43.4285 26.54C38.7451 32.2768 27.5967 47.3199 27.5967 55.0006C27.5967 64.3586 35.2101 71.9719 44.5683 71.9719C53.9263 71.9719 61.5396 64.3585 61.5396 55.0006C61.5396 47.3143 50.3379 32.2114 45.7078 26.54ZM44.568 69.0285C36.8329 69.0285 30.5401 62.7357 30.5401 55.0008C30.5401 48.9427 39.7982 35.9024 44.568 29.8279C49.3379 35.9024 58.5958 48.9428 58.5958 55.0008C58.596 62.7357 52.3031 69.0285 44.568 69.0285Z" fill="#998470"/>
<path d="M42.533 40.0671C41.8566 39.6162 40.943 39.7989 40.492 40.4753C37.4498 45.0383 35.3505 48.8524 34.2519 51.812C33.9691 52.574 34.3575 53.4212 35.1194 53.704C35.8814 53.9868 36.7284 53.5984 37.0114 52.8365C37.712 50.949 39.3094 47.5556 42.941 42.1083C43.3922 41.4318 43.2095 40.518 42.533 40.0671Z" fill="#998470"/>
<path d="M41.8361 62.67C39.9913 62.0106 38.4422 60.7039 37.4741 58.9905C37.0741 58.2826 36.176 58.0331 35.4686 58.4331C34.7609 58.8331 34.5113 59.7308 34.9113 60.4385C36.2273 62.7673 38.3346 64.5443 40.8452 65.4419C41.6126 65.7156 42.4534 65.3153 42.7265 64.5514C43.0003 63.786 42.6015 62.9435 41.8361 62.67Z" fill="#998470"/>
<path d="M73.9653 55.5414C73.3768 54.8208 72.2739 54.8214 71.686 55.5414C70.6177 56.849 61.2479 68.4872 61.2479 74.4222C61.2479 80.8064 66.4417 86.0001 72.8258 86.0001C79.2097 86.0001 84.4035 80.8064 84.4035 74.4222C84.4033 68.4875 75.0338 56.8489 73.9653 55.5414ZM72.8257 83.0564C68.0647 83.0564 64.1914 79.1832 64.1914 74.4221C64.1914 70.5051 70.4572 61.9268 72.8257 58.8515C75.2075 61.9435 81.4597 70.51 81.4597 74.4221C81.4597 79.1832 77.5863 83.0564 72.8257 83.0564Z" fill="#998470"/>
<path d="M71.1113 67.1785C70.4154 66.7579 69.5105 66.981 69.0902 67.6768C67.2107 70.7865 66.5229 72.6289 66.2768 73.6272C66.0824 74.4164 66.5645 75.2138 67.3537 75.4085C68.1434 75.6029 68.9405 75.1205 69.1349 74.3317C69.2649 73.8046 69.766 72.2492 71.6093 69.1994C72.03 68.5038 71.8069 67.5991 71.1113 67.1785Z" fill="#998470"/>
</g>
</g>
<defs>
<filter id="filter0_i_153_1486" x="0" y="0" width="112" height="116" filterUnits="userSpaceOnUse" color-interpolation-filters="sRGB">
<feFlood flood-opacity="0" result="BackgroundImageFix"/>
<feBlend mode="normal" in="SourceGraphic" in2="BackgroundImageFix" result="shape"/>
<feColorMatrix in="SourceAlpha" type="matrix" values="0 0 0 0 0 0 0 0 0 0 0 0 0 0 0 0 0 0 127 0" result="hardAlpha"/>
<feOffset dy="4"/>
<feGaussianBlur stdDeviation="2"/>
<feComposite in2="hardAlpha" operator="arithmetic" k2="-1" k3="1"/>
<feColorMatrix type="matrix" values="0 0 0 0 0 0 0 0 0 0 0 0 0 0 0 0 0 0 0.25 0"/>
<feBlend mode="normal" in2="shape" result="effect1_innerShadow_153_1486"/>
</filter>
<clipPath id="clip0_153_1486">
<rect width="112" height="112" fill="white"/>
</clipPath>
<clipPath id="clip1_153_1486">
<rect width="60" height="60" fill="white" transform="translate(26 26)"/>
</clipPath>
</defs>
</svg>
